<svg xmlns="http://www.w3.org/2000/svg" width="33" height="33"><linearGradient id="a" x1="0%" x2="0%" y1="100%" y2="0%"><stop offset="0%" stop-color="#0095EC"/><stop offset="100%" stop-color="#00B699"/></linearGradient><path fill-rule="evenodd" fill="url(#a)" d="M17.191 8.912a.641.641 0 0 1-.214-.036l-.043-.015a.645.645 0 0 1 .426-1.217l.044.015a.645.645 0 0 1-.213 1.253zM32.689 19.69a16.492 16.492 0 0 1-5.984 9.778.644.644 0 1 1-.796-1.014c4.284-3.363 6.311-8.71 5.666-13.88a2.006 2.006 0 0 1-.532.969l-.418.417a.644.644 0 0 1-1.061-.235l-.876-2.41a.33.33 0 0 0-.059-.101l-.794-.93a.33.33 0 0 0-.25-.115h-.308l.035.052a.645.645 0 0 1-.081.813 8.419 8.419 0 0 1-3.024 1.935l-.486.18a.644.644 0 0 1-.794-.307l-1.668-3.195a.64.64 0 0 1-.073-.298v-.452l-.9-.859-.949-.333a.645.645 0 1 1 .427-1.216l1.08.379c.086.03.165.079.231.143l1.2 1.144c.128.122.2.291.2.467v.569l1.332 2.552a7.141 7.141 0 0 0 2.128-1.264l-.098-.148a.932.932 0 1 1 .776-1.451h.972c.474 0 .922.207 1.23.567l.794.93c.126.148.224.315.29.498l.445 1.224.001-.016c.008-.478.217-.934.573-1.252l.274-.244a15.082 15.082 0 0 0-1.519-3.689c-2.555-4.425-7.014-7.081-11.751-7.532l-1.854 2.325a.648.648 0 0 1-.291.207L11.606 5.36l-.946 2.293.962 1.346a2.944 2.944 0 0 1 2.495-1.391h.366a.644.644 0 1 1 0 1.289h-.366a1.65 1.65 0 0 0-1.548 1.089l-.015.044c.307-.035.619-.046.9-.056.179-.006.349-.012.483-.024.236-.02 1.431-.079 1.791.682a.908.908 0 0 1 .057.62l.013.009c.199.133.524.349.76.463a.8.8 0 0 1 .229-.309c.153-.122.358-.207.687-.284a.652.652 0 0 1 .371.022c.141.053.356.111.583.172.677.183 1.443.391 1.85.822.452.479.718 1.167.953 1.774.088.23.172.446.256.625.047.1.093.204.14.309.236.526.48 1.07.879 1.331.09.059.374.103.562.132.476.072 1.069.163 1.302.704.238.552-.146 1.108-.273 1.291-.288.418-.662.766-1.023 1.102-.833.776-1.178 1.183-.981 1.818.234.756.455 1.47-.403 2.403a8.285 8.285 0 0 1-.143.153c-.254.272-.331.354-.437.687-.139.439-.354.681-.527.875-.086.097-.154.173-.212.272a1.043 1.043 0 0 0-.082.288c-.05.251-.119.595-.399.938-.445.547-1.415 1.41-2.344 1.41a1.34 1.34 0 0 1-.562-.119c-.349-.159-.783-.553-1.363-2.272-.072-.214-.182-.456-.298-.712-.359-.79-.765-1.685-.473-2.587l.049-.153c.192-.584.28-.851.079-1.333-.032-.076-.135-.189-.234-.298-.2-.22-.448-.494-.545-.89-.06-.247-.058-.465-.057-.639.002-.273-.006-.289-.093-.37-.177-.165-.352-.152-.905-.015-.2.05-.407.101-.629.127-1.363.16-2.641-.388-3.416-1.466-.801-1.115-.923-2.602-.318-3.882.275-.582.662-1.018 1.036-1.439.072-.08.144-.162.216-.245.083-.096.203-.266.33-.446.29-.412.533-.743.782-.97L9.404 8.111a.643.643 0 0 1-.071-.62l1.192-2.889a.645.645 0 0 1 .382-.363l4.268-1.496 1.151-1.444a15.124 15.124 0 0 0-7.427 2.033c-.638.368-1.239.778-1.803 1.22.521.324.936.805 1.175 1.383.403.98.197 2.113-.526 2.888l-.707.757-1.755 3.063a.632.632 0 0 1-.184.204l-1.132.81.79 1.159a.645.645 0 0 1-.426.999c-.005 0-.546.091-1.09.171-.573.085-.92.132-1.155.132-.255 0-.377-.056-.511-.178a.64.64 0 0 1-.119-.145 3.984 3.984 0 0 0-.133-.129c-.033.585-.032 1.172.003 1.76l1.643-.533a.644.644 0 0 1 .589.099l2.807 2.135 1.455.284a2.008 2.008 0 0 1 1.521 2.593.71.71 0 0 0-.001.444l.204.629a2.007 2.007 0 0 1-1.287 2.526l-.279.09-.577 3.014c4.067 3.054 9.511 3.932 14.54 1.999a.644.644 0 0 1 .463 1.203 16.428 16.428 0 0 1-5.891 1.09A16.492 16.492 0 0 1 2.216 24.75 16.392 16.392 0 0 1 .568 12.232 16.389 16.389 0 0 1 8.254 2.216 16.392 16.392 0 0 1 20.772.568a16.387 16.387 0 0 1 10.017 7.686 16.484 16.484 0 0 1 1.9 11.436zm-21.682-6.879l-.226.256c-.343.386-.639.719-.835 1.133-.404.857-.328 1.845.2 2.58.505.702 1.313 1.044 2.219.937.141-.016.301-.056.47-.097.551-.137 1.382-.342 2.096.325.506.474.502.983.5 1.32-.001.125-.001.232.021.326.019.077.14.21.246.327.165.181.352.387.47.669.385.924.177 1.558-.043 2.231l-.049.148c-.138.427.146 1.052.421 1.657.124.274.253.557.346.833.376 1.117.625 1.44.694 1.514.06.004.237-.023.54-.215.326-.207.643-.51.814-.72.074-.091.096-.187.134-.377.039-.194.087-.435.234-.685a2.85 2.85 0 0 1 .36-.477c.133-.15.206-.233.263-.41.194-.613.429-.863.726-1.179l.133-.142c.347-.378.337-.453.121-1.15-.457-1.475.536-2.4 1.334-3.143.313-.292.609-.568.817-.858l-.14-.022c-.351-.054-.748-.115-1.073-.327-.715-.467-1.052-1.219-1.349-1.883a26.996 26.996 0 0 0-.132-.289 11.59 11.59 0 0 1-.291-.707c-.192-.496-.409-1.059-.688-1.354-.157-.166-.867-.359-1.249-.462l-.322-.089a.7.7 0 0 1-.172.211l-.028.028c-.116.118-.387.396-.875.364-.537-.034-1.108-.414-1.611-.75-.179-.119-.347-.232-.468-.296a.643.643 0 0 1-.296-.802 1.805 1.805 0 0 0-.275-.001c-.165.014-.349.02-.544.027-.487.018-1.155.041-1.442.203-.141.088-.466.549-.641.797a7.467 7.467 0 0 1-.41.549zM3.332 24.106a15.385 15.385 0 0 0 2.937 3.662l.515-2.691a.644.644 0 0 1 .434-.492l.64-.208a.716.716 0 0 0 .46-.902l-.204-.628a1.992 1.992 0 0 1 .002-1.245.707.707 0 0 0-.063-.585.706.706 0 0 0-.48-.341l-1.602-.313a.646.646 0 0 1-.267-.12l-2.657-2.02-1.587.515a15.13 15.13 0 0 0 1.872 5.368zM6.034 5.47a15.233 15.233 0 0 0-4.539 8.621c.317.278.53.468.683.611.041.038.081.074.118.111.197-.022.493-.062.823-.111l-.572-.84a.643.643 0 0 1 .158-.887l1.53-1.094 1.721-3.006a.655.655 0 0 1 .089-.12l.758-.812a1.432 1.432 0 0 0 .276-1.517 1.68 1.68 0 0 0-1.045-.956zm16.859 18.965l.006-.014c.052-.122.045-.188.017-.38-.033-.222-.078-.526.042-.909.194-.619.703-.865 1.074-1.044.155-.075.316-.152.378-.224.111-.128.218-.36.322-.585.061-.133.125-.271.196-.401a.643.643 0 0 1 1.189.142l.31 1.169a.633.633 0 0 1-.005.348l-.758 2.556c-.404 1.36-.898 2.044-1.556 2.152a1.03 1.03 0 0 1-.171.014c-.312 0-.714-.14-1.096-.684-.535-.761-.153-1.658.052-2.14zm1.003 1.399l.039.054c.105-.145.287-.468.493-1.162l.488-1.644a4.394 4.394 0 0 1-.324.167c-.228.11-.379.188-.404.268-.031.098-.022.169.003.335.038.259.09.613-.106 1.073l-.006.016c-.122.286-.306.718-.183.893zm.184 3.853l.025-.014a.644.644 0 1 1 .647 1.115l-.025.014a.645.645 0 0 1-.647-1.115z"/></svg>